%TF.GenerationSoftware,KiCad,Pcbnew,7.0.7*%
%TF.CreationDate,2024-05-17T14:43:21-07:00*%
%TF.ProjectId,Serberus,53657262-6572-4757-932e-6b696361645f,V2.2*%
%TF.SameCoordinates,Original*%
%TF.FileFunction,Legend,Bot*%
%TF.FilePolarity,Positive*%
%FSLAX46Y46*%
G04 Gerber Fmt 4.6, Leading zero omitted, Abs format (unit mm)*
G04 Created by KiCad (PCBNEW 7.0.7) date 2024-05-17 14:43:21*
%MOMM*%
%LPD*%
G01*
G04 APERTURE LIST*
%ADD10C,0.125000*%
%ADD11C,0.120000*%
%ADD12C,0.500000*%
G04 APERTURE END LIST*
D10*
X157766666Y-121374809D02*
X157766666Y-121731952D01*
X157766666Y-121731952D02*
X157790475Y-121803380D01*
X157790475Y-121803380D02*
X157838094Y-121851000D01*
X157838094Y-121851000D02*
X157909523Y-121874809D01*
X157909523Y-121874809D02*
X157957142Y-121874809D01*
X157528571Y-121874809D02*
X157528571Y-121374809D01*
X157528571Y-121374809D02*
X157338095Y-121374809D01*
X157338095Y-121374809D02*
X157290476Y-121398619D01*
X157290476Y-121398619D02*
X157266666Y-121422428D01*
X157266666Y-121422428D02*
X157242857Y-121470047D01*
X157242857Y-121470047D02*
X157242857Y-121541476D01*
X157242857Y-121541476D02*
X157266666Y-121589095D01*
X157266666Y-121589095D02*
X157290476Y-121612904D01*
X157290476Y-121612904D02*
X157338095Y-121636714D01*
X157338095Y-121636714D02*
X157528571Y-121636714D01*
X156766666Y-121874809D02*
X157052380Y-121874809D01*
X156909523Y-121874809D02*
X156909523Y-121374809D01*
X156909523Y-121374809D02*
X156957142Y-121446238D01*
X156957142Y-121446238D02*
X157004761Y-121493857D01*
X157004761Y-121493857D02*
X157052380Y-121517666D01*
D11*
%TO.C,J5*%
X149717500Y-123099500D02*
X149717500Y-123607500D01*
X149717500Y-123607500D02*
X150479500Y-122845500D01*
X149717500Y-123607500D02*
X150225500Y-123607500D01*
D12*
X149015500Y-124309500D02*
X149015500Y-125639500D01*
X147685500Y-124309500D02*
X149015500Y-124309500D01*
D11*
X146415500Y-124309500D02*
X138735500Y-124309500D01*
X146415500Y-124309500D02*
X146415500Y-126909500D01*
X138735500Y-124309500D02*
X138735500Y-129509500D01*
X149015500Y-126909500D02*
X149015500Y-129509500D01*
X146415500Y-126909500D02*
X149015500Y-126909500D01*
X149015500Y-129509500D02*
X138735500Y-129509500D01*
%TO.C,JP1*%
X155950000Y-119550000D02*
X155950000Y-120150000D01*
X156650000Y-120850000D02*
X158050000Y-120850000D01*
X158050000Y-118850000D02*
X156650000Y-118850000D01*
X158750000Y-120150000D02*
X158750000Y-119550000D01*
X156650000Y-118850000D02*
G75*
G03*
X155950000Y-119550000I-1J-699999D01*
G01*
X155950000Y-120150000D02*
G75*
G03*
X156650000Y-120850000I699999J-1D01*
G01*
X158750000Y-119550000D02*
G75*
G03*
X158050000Y-118850000I-700000J0D01*
G01*
X158050000Y-120850000D02*
G75*
G03*
X158750000Y-120150000I0J700000D01*
G01*
%TD*%
M02*
